<?xml version="1.0" encoding="UTF-8" standalone="no"?>
<!-- Created with Inkscape (http://www.inkscape.org/) -->

<svg
   xmlns:osb="http://www.openswatchbook.org/uri/2009/osb"
   xmlns:dc="http://purl.org/dc/elements/1.1/"
   xmlns:cc="http://creativecommons.org/ns#"
   xmlns:rdf="http://www.w3.org/1999/02/22-rdf-syntax-ns#"
   xmlns:svg="http://www.w3.org/2000/svg"
   xmlns="http://www.w3.org/2000/svg"
   xmlns:sodipodi="http://sodipodi.sourceforge.net/DTD/sodipodi-0.dtd"
   xmlns:inkscape="http://www.inkscape.org/namespaces/inkscape"
   width="15.24mm"
   height="128.5mm"
   viewBox="0 0 15.240001 128.50002"
   version="1.1"
   id="svg8"
   inkscape:version="0.92.4 (5da689c313, 2019-01-14)"
   sodipodi:docname="Gaussian.svg"
   style="enable-background:new">
  <defs
     id="defs2">
    <linearGradient
       id="linearGradient868"
       osb:paint="solid">
      <stop
         style="stop-color:#acac50;stop-opacity:1;"
         offset="0"
         id="stop866" />
    </linearGradient>
    <linearGradient
       id="linearGradient4553"
       osb:paint="solid">
      <stop
         style="stop-color:#000000;stop-opacity:1;"
         offset="0"
         id="stop4551" />
    </linearGradient>
  </defs>
  <sodipodi:namedview
     id="base"
     pagecolor="#ffffff"
     bordercolor="#666666"
     borderopacity="1.0"
     inkscape:pageopacity="0.0"
     inkscape:pageshadow="2"
     inkscape:zoom="1.4"
     inkscape:cx="-87.814083"
     inkscape:cy="166.86837"
     inkscape:document-units="mm"
     inkscape:current-layer="layer1"
     showgrid="false"
     units="mm"
     inkscape:snap-bbox="true"
     inkscape:snap-page="true"
     inkscape:bbox-nodes="false"
     inkscape:snap-bbox-edge-midpoints="false"
     inkscape:window-width="1366"
     inkscape:window-height="704"
     inkscape:window-x="0"
     inkscape:window-y="27"
     inkscape:window-maximized="1"
     inkscape:snap-bbox-midpoints="true"
     inkscape:snap-nodes="false" />
  <metadata
     id="metadata5">
    <rdf:RDF>
      <cc:Work
         rdf:about="">
        <dc:format>image/svg+xml</dc:format>
        <dc:type
           rdf:resource="http://purl.org/dc/dcmitype/StillImage" />
        <dc:title />
      </cc:Work>
    </rdf:RDF>
  </metadata>
  <g
     inkscape:label="Layer 1"
     inkscape:groupmode="layer"
     id="layer1"
     transform="translate(0,-168.49998)"
     style="display:inline">
    <rect
       style="display:inline;opacity:1;vector-effect:none;fill:#ffff71;fill-opacity:1;fill-rule:evenodd;stroke:none;stroke-width:0.07071068;stroke-linecap:butt;stroke-linejoin:miter;stroke-miterlimit:4;stroke-dasharray:none;stroke-dashoffset:0;stroke-opacity:1;paint-order:normal"
       id="rect420"
       width="15.24"
       height="128.5"
       x="0"
       y="168.49997" />
    <rect
       style="opacity:1;fill:#e6dc50;fill-opacity:1;stroke:#acac50;stroke-width:0.2;stroke-linejoin:round;stroke-miterlimit:4;stroke-dasharray:none;stroke-dashoffset:0;stroke-opacity:1"
       id="rect895"
       width="12.8"
       height="33"
       x="1.1944046"
       y="193.52878"
       rx="2.5999999" />
    <g
       aria-label="trig"
       style="font-style:normal;font-variant:normal;font-weight:normal;font-stretch:normal;font-size:6.3499999px;line-height:1.25;font-family:'Tlwg Mono';-inkscape-font-specification:'Tlwg Mono';letter-spacing:0px;word-spacing:0px;fill:#000000;fill-opacity:1;stroke:none;stroke-width:0.26458332"
       id="text56"
       transform="matrix(0.56402715,0,0,0.55831807,-1.2683022,131.97253)">
      <path
         d="m 9.3075887,253.05814 h 1.3970003 q 0.17145,0 0.17145,0.127 0,0.13335 -0.17145,0.13335 H 9.3075887 v 1.69545 q 0,0.2413 0.1905,0.38735 0.1905,0.14605 0.5207003,0.14605 0.2667,0 0.56515,-0.0699 0.3048,-0.0762 0.48895,-0.18415 0.0635,-0.0381 0.1016,-0.0381 0.04445,0 0.08255,0.0381 0.0381,0.0381 0.0381,0.0889 0,0.1397 -0.4318,0.28575 -0.42545,0.1397 -0.83185,0.1397 -0.4508503,0 -0.7175503,-0.20955 -0.2667,-0.2159 -0.2667,-0.5715 v -1.70815 h -0.4699 q -0.1778,0 -0.1778,-0.13335 0,-0.127 0.1778,-0.127 h 0.4699 v -0.75565 q 0,-0.17145 0.13335,-0.17145 0.127,0 0.127,0.17145 z"
         style="font-style:normal;font-variant:normal;font-weight:normal;font-stretch:normal;font-size:6.3499999px;font-family:'Tlwg Mono';-inkscape-font-specification:'Tlwg Mono';stroke-width:0.26458332"
         id="path3805"
         inkscape:connector-curvature="0" />
      <path
         d="m 13.508808,253.05814 v 0.6477 q 0.43815,-0.40005 0.7112,-0.55245 0.27305,-0.15875 0.51435,-0.15875 0.254,0 0.48895,0.19685 0.14605,0.12065 0.14605,0.19685 0,0.0572 -0.0381,0.0952 -0.0381,0.0381 -0.09525,0.0381 -0.0508,0 -0.1016,-0.0508 -0.22225,-0.2159 -0.4191,-0.2159 -0.2159,0 -0.45085,0.1524 -0.2286,0.1524 -0.75565,0.635 v 1.40335 h 1.13665 q 0.17145,0 0.17145,0.13335 0,0.127 -0.17145,0.127 h -2.0066 q -0.17145,0 -0.17145,-0.13335 0,-0.127 0.17145,-0.127 h 0.6096 v -2.12725 h -0.47625 q -0.17145,0 -0.17145,-0.13335 0,-0.127 0.17145,-0.127 z"
         style="font-style:normal;font-variant:normal;font-weight:normal;font-stretch:normal;font-size:6.3499999px;font-family:'Tlwg Mono';-inkscape-font-specification:'Tlwg Mono';stroke-width:0.26458332"
         id="path3807"
         inkscape:connector-curvature="0" />
      <path
         d="m 17.773528,253.05814 v 2.3876 h 1.016 q 0.1778,0 0.1778,0.127 0,0.13335 -0.1778,0.13335 h -2.29235 q -0.17145,0 -0.17145,-0.13335 0,-0.127 0.17145,-0.127 h 1.016 v -2.12725 h -0.7493 q -0.17145,0 -0.17145,-0.13335 0,-0.127 0.17145,-0.127 z m -0.0127,-1.31445 v 0.6604 h -0.37465 v -0.6604 z"
         style="font-style:normal;font-variant:normal;font-weight:normal;font-stretch:normal;font-size:6.3499999px;font-family:'Tlwg Mono';-inkscape-font-specification:'Tlwg Mono';stroke-width:0.26458332"
         id="path3809"
         inkscape:connector-curvature="0" />
      <path
         d="m 22.343046,253.62329 v -0.56515 h 0.60325 q 0.17145,0 0.17145,0.127 0,0.13335 -0.17145,0.13335 h -0.3429 v 2.5654 q 0,0.4064 -0.3048,0.70485 -0.3048,0.29845 -0.74295,0.29845 h -0.7239 q -0.17145,0 -0.17145,-0.13335 0,-0.127 0.17145,-0.127 h 0.7366 q 0.32385,0 0.5461,-0.2286 0.2286,-0.2286 0.2286,-0.55245 v -0.69215 q -0.4191,0.65405 -1.08585,0.65405 -0.53975,0 -0.927099,-0.4191 -0.381,-0.4191 -0.381,-1.0033 0,-0.5842 0.381,-0.99695 0.387349,-0.4191 0.927099,-0.4191 0.6731,0 1.08585,0.65405 z m -1.0668,-0.3937 q -0.4445,0 -0.755649,0.3429 -0.31115,0.33655 -0.31115,0.8128 0,0.4826 0.31115,0.8255 0.311149,0.33655 0.755649,0.33655 0.4445,0 0.75565,-0.33655 0.31115,-0.3429 0.31115,-0.8128 0,-0.48895 -0.31115,-0.8255 -0.3048,-0.3429 -0.75565,-0.3429 z"
         style="font-style:normal;font-variant:normal;font-weight:normal;font-stretch:normal;font-size:6.3499999px;font-family:'Tlwg Mono';-inkscape-font-specification:'Tlwg Mono';stroke-width:0.26458332"
         id="path3811"
         inkscape:connector-curvature="0" />
    </g>
    <rect
       style="display:inline;opacity:1;fill:#e6dc50;fill-opacity:1;stroke:#acac50;stroke-width:0.2;stroke-linejoin:round;stroke-miterlimit:4;stroke-dasharray:none;stroke-dashoffset:0;stroke-opacity:1;enable-background:new"
       id="rect895-7"
       width="12.8"
       height="33"
       x="1.1944046"
       y="227.93388"
       rx="2.5999999" />
    <g
       aria-label="μ"
       style="font-style:normal;font-variant:normal;font-weight:normal;font-stretch:normal;font-size:10.58333302px;line-height:1.25;font-family:'Tlwg Typewriter';-inkscape-font-specification:'Tlwg Typewriter';letter-spacing:0px;word-spacing:0px;display:inline;fill:#4b461e;fill-opacity:1;stroke:none;stroke-width:0.26458332"
       id="text60-2"
       transform="matrix(0.66446833,0,0,0.66546481,-2.5981386,111.41977)">
      <path
         d="m 12.589973,207.89346 v -7.98917 h 0.950847 v 3.59668 q 0,0.7493 0.356567,1.13171 0.356567,0.38241 1.054199,0.38241 0.764811,0 1.147217,-0.43409 0.387573,-0.43408 0.387573,-1.30224 v -3.37447 h 0.950847 v 4.45451 q 0,0.31005 0.08785,0.45992 0.09302,0.14469 0.28422,0.14469 0.04651,0 0.129191,-0.0258 0.08268,-0.031 0.227376,-0.093 v 0.76481 q -0.211873,0.11886 -0.403076,0.1757 -0.186035,0.0569 -0.366903,0.0569 -0.356567,0 -0.56844,-0.20154 -0.211874,-0.20154 -0.289388,-0.61495 -0.258382,0.40824 -0.63562,0.61495 -0.372071,0.20154 -0.8785,0.20154 -0.527099,0 -0.89917,-0.20154 -0.366902,-0.20154 -0.583943,-0.60461 v 2.8577 z"
         style="font-style:normal;font-variant:normal;font-weight:normal;font-stretch:normal;font-family:'Tlwg Mono';-inkscape-font-specification:'Tlwg Mono';fill:#4b461e;fill-opacity:1;stroke-width:0.26458332"
         id="path3790"
         inkscape:connector-curvature="0" />
    </g>
    <g
       aria-label="Gauss"
       style="font-style:normal;font-weight:normal;font-size:10.58333302px;line-height:1.25;font-family:sans-serif;letter-spacing:0px;word-spacing:0px;fill:#4b461e;fill-opacity:1;stroke:none;stroke-width:0.26458332"
       id="text3827"
       transform="matrix(0.54708041,0,0,0.71676858,-0.73084292,50.141441)">
      <path
         d="m 5.4327272,172.69011 q -0.4402666,0 -0.7704666,0.16086 -0.3217333,0.1524 -0.4910667,0.39794 -0.1608666,0.24553 -0.2370666,0.49106 -0.067733,0.23707 -0.067733,0.47414 v 0.54186 q 0,1.41394 1.6255999,1.41394 0.5841999,0 1.0583333,-0.21167 v -0.5842 h -0.846667 q -0.5587999,0 -0.5587999,-0.42333 0,-0.42334 0.5587999,-0.42334 h 1.4816666 q 0.5672667,0 0.5672667,0.42334 0,0.32173 -0.3556,0.42333 v 1.1176 q -0.5672667,0.29633 -0.9652,0.4064 -0.3979333,0.11853 -0.8889999,0.11853 -1.1599333,0 -1.8457333,-0.5588 -0.6773333,-0.56726 -0.6773333,-1.64253 v -0.60113 q 0,-0.4064 0.1439334,-0.8128 0.1524,-0.4064 0.4317999,-0.762 0.2794,-0.3556 0.7535333,-0.57574 0.4826,-0.22013 1.0752667,-0.22013 0.6857999,0 1.2276666,0.27093 0.1354666,-0.27093 0.3471333,-0.27093 0.1947333,0 0.2963333,0.127 0.1016,0.11853 0.1016,0.4318 v 0.6604 q 0,0.5588 -0.4233333,0.5588 -0.084667,0 -0.1524,-0.0254 -0.067733,-0.0339 -0.1100667,-0.0677 -0.042333,-0.0339 -0.0762,-0.0931 -0.0254,-0.0677 -0.042333,-0.1016 -0.00847,-0.0423 -0.0254,-0.0931 -0.00847,-0.0593 -0.00847,-0.0677 -0.067733,-0.22014 -0.3640666,-0.34714 -0.2963333,-0.13546 -0.762,-0.13546 z"
         style="font-style:normal;font-variant:normal;font-weight:bold;font-stretch:normal;font-size:8.46666622px;font-family:'Tlwg Mono';-inkscape-font-specification:'Tlwg Mono Bold';fill:#4b461e;fill-opacity:1;stroke-width:0.26458332"
         id="path3871"
         inkscape:connector-curvature="0" />
      <path
         d="m 10.314686,173.93471 q -0.3386662,0 -0.7873995,0.1016 -0.4402666,0.0931 -0.5334,0.0931 -0.1777999,0 -0.2963333,-0.11853 -0.1185333,-0.127 -0.1185333,-0.31327 0,-0.27093 0.254,-0.3556 0.7196666,-0.254 1.4562661,-0.254 0.778934,0 1.2192,0.3302 0.448734,0.3302 0.448734,0.92287 v 1.71026 h 0.135466 q 0.5588,0 0.5588,0.42334 0,0.42333 -0.5588,0.42333 h -0.9906 v -0.19473 q -0.635,0.3302 -1.4054662,0.3302 -0.6265333,0 -1.0752666,-0.3302 -0.4487333,-0.33867 -0.4487333,-0.8128 0,-0.55034 0.5418667,-0.9906 0.5503333,-0.44027 1.5070664,-0.44027 0.381,0 0.880533,0.0847 v -0.19474 q 0,-0.41486 -0.7874,-0.41486 z m 0.795867,1.82033 v -0.42333 q -0.5334,-0.0931 -0.9398,-0.0931 -0.4317998,0 -0.7704665,0.18627 -0.3302,0.18627 -0.3302,0.4318 0,0.14393 0.1862667,0.23707 0.1862667,0.0931 0.4572,0.0931 0.6942668,0 1.3969998,-0.4318 z"
         style="font-style:normal;font-variant:normal;font-weight:bold;font-stretch:normal;font-size:8.46666622px;font-family:'Tlwg Mono';-inkscape-font-specification:'Tlwg Mono Bold';fill:#4b461e;fill-opacity:1;stroke-width:0.26458332"
         id="path3873"
         inkscape:connector-curvature="0" />
      <path
         d="m 15.205112,177.00811 q -0.668866,0 -1.0922,-0.37254 -0.414866,-0.381 -0.414866,-1.05833 v -1.53247 h -0.2286 q -0.211667,0 -0.338667,-0.11853 -0.127,-0.11853 -0.127,-0.3048 0,-0.42333 0.5588,-0.42333 h 0.982133 v 2.35373 q 0,0.6096 0.745067,0.6096 0.321733,0 0.5334,-0.11007 0.211667,-0.11853 0.541867,-0.46566 v -1.54094 h -0.296334 q -0.254,0 -0.4064,-0.1016 -0.1524,-0.11006 -0.1524,-0.32173 0,-0.42333 0.5588,-0.42333 h 1.143 v 2.85326 q 0.516467,0 0.516467,0.42334 0,0.42333 -0.5588,0.42333 h -0.804333 v -0.4064 q -0.313267,0.29633 -0.567267,0.4064 -0.245533,0.11007 -0.592667,0.11007 z"
         style="font-style:normal;font-variant:normal;font-weight:bold;font-stretch:normal;font-size:8.46666622px;font-family:'Tlwg Mono';-inkscape-font-specification:'Tlwg Mono Bold';fill:#4b461e;fill-opacity:1;stroke-width:0.26458332"
         id="path3875"
         inkscape:connector-curvature="0" />
      <path
         d="m 19.020272,176.88957 q -0.4318,0 -0.4318,-0.5588 v -0.2794 q 0,-0.56726 0.4318,-0.56726 0.321733,0 0.4318,0.37253 0.364066,0.3302 1.058333,0.3302 0.4064,0 0.694267,-0.11007 0.296333,-0.11006 0.296333,-0.254 0,-0.3302 -1.0668,-0.44026 -0.889,-0.0931 -1.286933,-0.36407 -0.397934,-0.27093 -0.397934,-0.77047 0,-0.508 0.491067,-0.82973 0.491067,-0.3302 1.253067,-0.3302 0.618066,0 1.0922,0.22013 0.09313,-0.22013 0.270933,-0.22013 0.397933,0 0.397933,0.5588 v 0.31327 q 0,0.5588 -0.423333,0.5588 -0.245533,0 -0.440267,-0.33867 -0.347133,-0.24553 -0.872066,-0.24553 -0.321734,0 -0.5842,0.0931 -0.254,0.0847 -0.254,0.2032 0,0.13547 0.194733,0.19473 0.194733,0.0593 0.618067,0.11854 0.0508,0.008 0.0762,0.008 0.313266,0.0423 0.5334,0.0931 0.2286,0.0423 0.499533,0.14393 0.270933,0.0931 0.4318,0.2286 0.169333,0.127 0.2794,0.33867 0.118533,0.21166 0.118533,0.4826 0,0.51646 -0.5334,0.85513 -0.5334,0.33867 -1.354666,0.33867 -0.7366,0 -1.253067,-0.24554 -0.127,0.1016 -0.270933,0.1016 z"
         style="font-style:normal;font-variant:normal;font-weight:bold;font-stretch:normal;font-size:8.46666622px;font-family:'Tlwg Mono';-inkscape-font-specification:'Tlwg Mono Bold';fill:#4b461e;fill-opacity:1;stroke-width:0.26458332"
         id="path3877"
         inkscape:connector-curvature="0" />
      <path
         d="m 24.096964,176.88957 q -0.4318,0 -0.4318,-0.5588 v -0.2794 q 0,-0.56726 0.4318,-0.56726 0.321734,0 0.4318,0.37253 0.364067,0.3302 1.058334,0.3302 0.4064,0 0.694266,-0.11007 0.296333,-0.11006 0.296333,-0.254 0,-0.3302 -1.066799,-0.44026 -0.889,-0.0931 -1.286934,-0.36407 -0.397933,-0.27093 -0.397933,-0.77047 0,-0.508 0.491067,-0.82973 0.491066,-0.3302 1.253066,-0.3302 0.618067,0 1.0922,0.22013 0.09313,-0.22013 0.270933,-0.22013 0.397934,0 0.397934,0.5588 v 0.31327 q 0,0.5588 -0.423334,0.5588 -0.245533,0 -0.440266,-0.33867 -0.347133,-0.24553 -0.872067,-0.24553 -0.321733,0 -0.5842,0.0931 -0.254,0.0847 -0.254,0.2032 0,0.13547 0.194734,0.19473 0.194733,0.0593 0.618066,0.11854 0.0508,0.008 0.0762,0.008 0.313267,0.0423 0.5334,0.0931 0.2286,0.0423 0.499533,0.14393 0.270934,0.0931 0.4318,0.2286 0.169334,0.127 0.2794,0.33867 0.118534,0.21166 0.118534,0.4826 0,0.51646 -0.5334,0.85513 -0.5334,0.33867 -1.354667,0.33867 -0.7366,0 -1.253066,-0.24554 -0.127,0.1016 -0.270934,0.1016 z"
         style="font-style:normal;font-variant:normal;font-weight:bold;font-stretch:normal;font-size:8.46666622px;font-family:'Tlwg Mono';-inkscape-font-specification:'Tlwg Mono Bold';fill:#4b461e;fill-opacity:1;stroke-width:0.26458332"
         id="path3879"
         inkscape:connector-curvature="0" />
    </g>
    <rect
       style="opacity:1;fill:#adb271;fill-opacity:1;stroke:#6f622e;stroke-width:0.5;stroke-linejoin:round;stroke-miterlimit:4;stroke-dasharray:none;stroke-dashoffset:0;stroke-opacity:1"
       id="rect4549"
       width="11.356014"
       height="15.549654"
       x="1.9419928"
       y="276.38385"
       rx="3.0424569" />
    <g
       aria-label="out"
       style="font-style:normal;font-variant:normal;font-weight:normal;font-stretch:normal;font-size:6.3499999px;line-height:1.25;font-family:'Tlwg Mono';-inkscape-font-specification:'Tlwg Mono';letter-spacing:0px;word-spacing:0px;fill:#000000;fill-opacity:1;stroke:none;stroke-width:0.26458332"
       id="text4559"
       transform="matrix(0.81882645,0,0,0.85461247,-4.8650724,45.829671)">
      <path
         d="m 11.532075,283.30508 q 0.6096,0 1.0287,0.4191 0.4191,0.41275 0.4191,1.016 0,0.5842 -0.42545,0.99695 -0.42545,0.4064 -1.02235,0.4064 -0.60325,0 -1.0287,-0.41275 -0.4191,-0.41275 -0.4191,-1.00965 0,-0.5842 0.4191,-0.99695 0.42545,-0.4191 1.0287,-0.4191 z m 0,0.26035 q -0.4953,0 -0.84455,0.33655 -0.3429,0.33655 -0.3429,0.81915 0,0.4826 0.3429,0.8255 0.34925,0.33655 0.84455,0.33655 0.48895,0 0.8382,-0.33655 0.34925,-0.33655 0.34925,-0.80645 0,-0.50165 -0.3429,-0.8382 -0.3429,-0.33655 -0.84455,-0.33655 z"
         style="font-style:normal;font-variant:normal;font-weight:normal;font-stretch:normal;font-size:6.3499999px;font-family:'Tlwg Mono';-inkscape-font-specification:'Tlwg Mono';stroke-width:0.26458332"
         id="path4561"
         inkscape:connector-curvature="0" />
      <path
         d="m 16.222245,286.04193 v -0.4191 q -0.5334,0.5207 -1.1557,0.5207 -0.381,0 -0.61595,-0.2286 -0.2286,-0.2286 -0.2286,-0.60325 v -1.65735 h -0.3429 q -0.17145,0 -0.17145,-0.13335 0,-0.127 0.17145,-0.127 h 0.60325 v 1.9177 q 0,0.2413 0.1651,0.4064 0.17145,0.1651 0.41275,0.1651 0.635,0 1.16205,-0.5715 v -1.65735 h -0.4699 q -0.1778,0 -0.1778,-0.13335 0,-0.127 0.1778,-0.127 h 0.73025 v 2.3876 h 0.2159 q 0.17145,0 0.17145,0.127 0,0.13335 -0.17145,0.13335 z"
         style="font-style:normal;font-variant:normal;font-weight:normal;font-stretch:normal;font-size:6.3499999px;font-family:'Tlwg Mono';-inkscape-font-specification:'Tlwg Mono';stroke-width:0.26458332"
         id="path4563"
         inkscape:connector-curvature="0" />
      <path
         d="m 18.423214,283.39398 h 1.397 q 0.17145,0 0.17145,0.127 0,0.13335 -0.17145,0.13335 h -1.397 v 1.69545 q 0,0.2413 0.1905,0.38735 0.1905,0.14605 0.5207,0.14605 0.2667,0 0.56515,-0.0698 0.3048,-0.0762 0.48895,-0.18415 0.0635,-0.0381 0.1016,-0.0381 0.04445,0 0.08255,0.0381 0.0381,0.0381 0.0381,0.0889 0,0.1397 -0.4318,0.28575 -0.42545,0.1397 -0.83185,0.1397 -0.45085,0 -0.71755,-0.20955 -0.2667,-0.2159 -0.2667,-0.5715 v -1.70815 h -0.4699 q -0.1778,0 -0.1778,-0.13335 0,-0.127 0.1778,-0.127 h 0.4699 v -0.75565 q 0,-0.17145 0.13335,-0.17145 0.127,0 0.127,0.17145 z"
         style="font-style:normal;font-variant:normal;font-weight:normal;font-stretch:normal;font-size:6.3499999px;font-family:'Tlwg Mono';-inkscape-font-specification:'Tlwg Mono';stroke-width:0.26458332"
         id="path4565"
         inkscape:connector-curvature="0" />
    </g>
    <g
       aria-label="×"
       style="font-style:normal;font-variant:normal;font-weight:normal;font-stretch:normal;font-size:10.58333302px;line-height:1.25;font-family:'Tlwg Mono';-inkscape-font-specification:'Tlwg Mono';letter-spacing:0px;word-spacing:0px;fill:#4b461e;fill-opacity:1;stroke:none;stroke-width:0.26458332"
       id="text860"
       transform="translate(0,15.345837)">
      <path
         d="m 7.6200001,182.69572 -0.65405,0.65405 q -0.17145,0.1651 -0.29845,0.1651 -0.127,0 -0.22225,-0.0952 -0.09525,-0.0953 -0.09525,-0.2286 0,-0.127 0.1651,-0.2921 l 0.65405,-0.65405 -0.65405,-0.65405 q -0.1651,-0.17145 -0.1651,-0.29845 0,-0.127 0.09525,-0.22225 0.09525,-0.0952 0.22225,-0.0952 0.127,0 0.29845,0.1651 l 0.65405,0.65405 0.65405,-0.65405 q 0.17145,-0.1651 0.29845,-0.1651 0.127,0 0.22225,0.0952 0.09525,0.0952 0.09525,0.22225 0,0.127 -0.1651,0.29845 l -0.65405,0.65405 0.65405,0.65405 q 0.1651,0.1651 0.1651,0.29845 0,0.127 -0.09525,0.22225 -0.09525,0.0952 -0.22225,0.0952 -0.13335,0 -0.29845,-0.1651 z"
         style="font-style:normal;font-variant:normal;font-weight:bold;font-stretch:normal;font-size:6.3499999px;font-family:'Tlwg Mono';-inkscape-font-specification:'Tlwg Mono Bold';fill:#4b461e;fill-opacity:1;stroke-width:0.26458332"
         id="path4615"
         inkscape:connector-curvature="0" />
    </g>
    <g
       aria-label="+"
       style="font-style:normal;font-variant:normal;font-weight:normal;font-stretch:normal;font-size:10.58333302px;line-height:1.25;font-family:'Tlwg Mono';-inkscape-font-specification:'Tlwg Mono';letter-spacing:0px;word-spacing:0px;display:inline;fill:#4b461e;fill-opacity:1;stroke:none;stroke-width:0.26458332;enable-background:new"
       id="text867"
       inkscape:label="#text860-7"
       transform="translate(0,13.758336)">
      <path
         d="m 7.9374996,217.20237 v 1.0414 q 0,0.4191 -0.3175,0.4191 -0.3174999,0 -0.3174999,-0.4191 v -1.0414 h -0.9017 q -0.4191,0 -0.4191,-0.3175 0,-0.3175 0.4191,-0.3175 h 0.9017 v -1.0414 q 0,-0.4191 0.3174999,-0.4191 0.3175,0 0.3175,0.4191 v 1.0414 h 0.89535 q 0.42545,0 0.42545,0.3175 0,0.3175 -0.42545,0.3175 z"
         style="font-style:normal;font-variant:normal;font-weight:bold;font-stretch:normal;font-size:6.3499999px;font-family:'Tlwg Mono';-inkscape-font-specification:'Tlwg Mono Bold';fill:#4b461e;fill-opacity:1;stroke-width:0.26458332"
         id="path4618"
         inkscape:connector-curvature="0" />
    </g>
    <g
       aria-label="σ"
       style="font-style:normal;font-variant:normal;font-weight:normal;font-stretch:normal;font-size:10.58333302px;line-height:1.25;font-family:'Tlwg Typewriter';-inkscape-font-specification:'Tlwg Typewriter';letter-spacing:0px;word-spacing:0px;fill:#4b461e;fill-opacity:1;stroke:none;stroke-width:0.26458332"
       id="text60"
       transform="matrix(0.77013415,0,0,0.67199869,-4.1649779,58.682599)">
      <path
         inkscape:connector-curvature="0"
         d="m 15.051869,228.4667 q -0.785481,0 -1.209228,0.56844 -0.444417,0.59428 -0.444417,1.57613 0,1.0387 0.439249,1.63814 0.444417,0.59428 1.214396,0.59428 0.759644,0 1.204061,-0.59944 0.444417,-0.59945 0.444417,-1.63298 0,-0.94568 -0.444417,-1.57613 -0.408244,-0.56844 -1.204061,-0.56844 z m 0,-0.75448 h 3.15743 v 0.95085 h -1.064534 q 0.563273,0.80615 0.563273,1.9482 0,1.4211 -0.707967,2.22726 -0.707967,0.81132 -1.948202,0.81132 -1.245402,0 -1.948201,-0.81132 -0.707967,-0.80616 -0.707967,-2.22726 0,-1.43144 0.707967,-2.23242 0.583944,-0.66663 1.948201,-0.66663 z"
         style="font-style:normal;font-variant:normal;font-weight:normal;font-stretch:normal;font-family:'Tlwg Mono';-inkscape-font-specification:'Tlwg Mono';fill:#4b461e;fill-opacity:1;stroke-width:0.26458332"
         id="path3796" />
    </g>
    <g
       aria-label="bi"
       style="font-style:normal;font-variant:normal;font-weight:normal;font-stretch:normal;font-size:2.82222223px;line-height:1.25;font-family:'Tlwg Mono';-inkscape-font-specification:'Tlwg Mono';letter-spacing:0px;word-spacing:0px;display:inline;opacity:1;fill:#000000;fill-opacity:1;stroke:none;stroke-width:0.26458332;enable-background:new"
       id="text45-1"
       transform="translate(-6.4440917e-8,-67.204203)">
      <path
         d="m 6.4323957,257.36166 v 0.77894 q 0.2060223,-0.29069 0.508,-0.29069 0.2568223,0 0.4346223,0.18062 0.1778,0.18062 0.1778,0.44309 0,0.26529 -0.1806223,0.45155 -0.1778,0.18627 -0.4318,0.18627 -0.3104444,0 -0.508,-0.29351 v 0.24835 H 6.1642846 q -0.0762,0 -0.0762,-0.0593 0,-0.0564 0.0762,-0.0564 h 0.1524 v -1.4732 h -0.1524 q -0.0762,0 -0.0762,-0.0593 0,-0.0565 0.0762,-0.0565 z m 0.5023556,0.60396 q -0.2088445,0 -0.3556,0.14958 -0.1467556,0.14957 -0.1467556,0.36406 0,0.21449 0.1467556,0.36689 0.1467555,0.14958 0.3556,0.14958 0.2060222,0 0.3527778,-0.14958 0.1495777,-0.14958 0.1495777,-0.35842 0,-0.22013 -0.1467555,-0.36971 -0.1439333,-0.1524 -0.3556,-0.1524 z"
         style="font-style:normal;font-variant:normal;font-weight:normal;font-stretch:normal;font-size:2.82222223px;font-family:'Tlwg Mono';-inkscape-font-specification:'Tlwg Mono';stroke-width:0.26458332"
         id="path861"
         inkscape:connector-curvature="0" />
      <path
         d="m 8.6213378,257.88942 v 1.06115 h 0.4515555 q 0.079022,0 0.079022,0.0564 0,0.0593 -0.079022,0.0593 H 8.0540711 q -0.0762,0 -0.0762,-0.0593 0,-0.0564 0.0762,-0.0564 h 0.4515556 v -0.94544 H 8.1726045 q -0.0762,0 -0.0762,-0.0593 0,-0.0564 0.0762,-0.0564 z m -0.00564,-0.5842 v 0.29351 H 8.4491822 v -0.29351 z"
         style="font-style:normal;font-variant:normal;font-weight:normal;font-stretch:normal;font-size:2.82222223px;font-family:'Tlwg Mono';-inkscape-font-specification:'Tlwg Mono';stroke-width:0.26458332"
         id="path863"
         inkscape:connector-curvature="0" />
    </g>
    <g
       aria-label="uni"
       style="enable-background:new;display:inline;opacity:1;font-style:normal;font-variant:normal;font-weight:normal;font-stretch:normal;font-size:2.82222223px;line-height:1.25;font-family:'Tlwg Mono';-inkscape-font-specification:'Tlwg Mono';letter-spacing:0px;word-spacing:0px;fill:#000000;fill-opacity:1;stroke:none;stroke-width:0.26458332"
       id="text45"
       transform="translate(1.8555908e-7,101.29578)">
      <path
         d="M 6.3892022,79.199516 V 79.01325 q -0.2370667,0.231422 -0.5136445,0.231422 -0.1693333,0 -0.2737555,-0.1016 -0.1016,-0.1016 -0.1016,-0.268111 v -0.7366 h -0.1524 q -0.0762,0 -0.0762,-0.05927 0,-0.05644 0.0762,-0.05644 h 0.2681111 v 0.852311 q 0,0.107244 0.073378,0.180622 0.0762,0.07338 0.1834444,0.07338 0.2822222,0 0.5164667,-0.254 v -0.7366 H 6.1803577 q -0.079022,0 -0.079022,-0.05927 0,-0.05644 0.079022,-0.05644 h 0.3245556 v 1.061155 h 0.095955 q 0.0762,0 0.0762,0.05644 0,0.05927 -0.0762,0.05927 z"
         style="font-style:normal;font-variant:normal;font-weight:normal;font-stretch:normal;font-size:2.82222223px;font-family:'Tlwg Mono';-inkscape-font-specification:'Tlwg Mono';stroke-width:0.26458332"
         id="path854"
         inkscape:connector-curvature="0" />
      <path
         d="m 7.3137887,78.02265 v 0.194733 q 0.1213555,-0.135467 0.2144889,-0.183444 0.093133,-0.0508 0.2257777,-0.0508 0.1890889,0 0.3160889,0.110066 0.127,0.110067 0.127,0.273756 v 0.716844 h 0.095956 q 0.0762,0 0.0762,0.05644 0,0.05927 -0.0762,0.05927 H 7.9854776 q -0.0762,0 -0.0762,-0.05927 0,-0.05644 0.0762,-0.05644 h 0.095955 v -0.697089 q 0,-0.124177 -0.1072444,-0.214489 -0.087489,-0.07338 -0.2314222,-0.07338 -0.1552223,0 -0.2681112,0.09313 -0.0508,0.03669 -0.1608666,0.1778 v 0.714022 h 0.127 q 0.0762,0 0.0762,0.05644 0,0.05927 -0.0762,0.05927 H 7.0710776 q -0.079022,0 -0.079022,-0.05927 0,-0.05644 0.079022,-0.05644 h 0.127 V 78.138361 H 7.102122 q -0.0762,0 -0.0762,-0.05927 0,-0.05644 0.0762,-0.05644 z"
         style="font-style:normal;font-variant:normal;font-weight:normal;font-stretch:normal;font-size:2.82222223px;font-family:'Tlwg Mono';-inkscape-font-specification:'Tlwg Mono';stroke-width:0.26458332"
         id="path856"
         inkscape:connector-curvature="0" />
      <path
         d="m 9.4378196,78.02265 v 1.061155 h 0.4515556 q 0.079022,0 0.079022,0.05644 0,0.05927 -0.079022,0.05927 H 8.8705529 q -0.0762,0 -0.0762,-0.05927 0,-0.05644 0.0762,-0.05644 H 9.3221085 V 78.138361 H 8.9890863 q -0.0762,0 -0.0762,-0.05927 0,-0.05644 0.0762,-0.05644 z m -0.00564,-0.5842 v 0.293511 H 9.2656641 V 77.43845 Z"
         style="font-style:normal;font-variant:normal;font-weight:normal;font-stretch:normal;font-size:2.82222223px;font-family:'Tlwg Mono';-inkscape-font-specification:'Tlwg Mono';stroke-width:0.26458332"
         id="path858"
         inkscape:connector-curvature="0" />
    </g>
  </g>
</svg>
