<?xml version="1.0" encoding="UTF-8" standalone="no"?>
<!-- Created with Inkscape (http://www.inkscape.org/) -->

<svg
   xmlns:osb="http://www.openswatchbook.org/uri/2009/osb"
   xmlns:dc="http://purl.org/dc/elements/1.1/"
   xmlns:cc="http://creativecommons.org/ns#"
   xmlns:rdf="http://www.w3.org/1999/02/22-rdf-syntax-ns#"
   xmlns:svg="http://www.w3.org/2000/svg"
   xmlns="http://www.w3.org/2000/svg"
   xmlns:sodipodi="http://sodipodi.sourceforge.net/DTD/sodipodi-0.dtd"
   xmlns:inkscape="http://www.inkscape.org/namespaces/inkscape"
   width="15.24mm"
   height="128.5mm"
   viewBox="0 0 15.240001 128.50002"
   version="1.1"
   id="svg8"
   inkscape:version="0.92.4 (5da689c313, 2019-01-14)"
   sodipodi:docname="Wobble_dev.svg"
   style="enable-background:new">
  <defs
     id="defs2">
    <linearGradient
       id="linearGradient868"
       osb:paint="solid">
      <stop
         style="stop-color:#acac50;stop-opacity:1;"
         offset="0"
         id="stop866" />
    </linearGradient>
    <linearGradient
       id="linearGradient4553"
       osb:paint="solid">
      <stop
         style="stop-color:#000000;stop-opacity:1;"
         offset="0"
         id="stop4551" />
    </linearGradient>
  </defs>
  <sodipodi:namedview
     id="base"
     pagecolor="#ffffff"
     bordercolor="#666666"
     borderopacity="1.0"
     inkscape:pageopacity="0.0"
     inkscape:pageshadow="2"
     inkscape:zoom="0.98994949"
     inkscape:cx="-318.46463"
     inkscape:cy="212.31808"
     inkscape:document-units="mm"
     inkscape:current-layer="layer2"
     showgrid="false"
     units="mm"
     inkscape:snap-bbox="true"
     inkscape:snap-page="true"
     inkscape:bbox-nodes="false"
     inkscape:snap-bbox-edge-midpoints="false"
     inkscape:window-width="1366"
     inkscape:window-height="704"
     inkscape:window-x="0"
     inkscape:window-y="27"
     inkscape:window-maximized="1"
     inkscape:snap-bbox-midpoints="true"
     inkscape:snap-nodes="false" />
  <metadata
     id="metadata5">
    <rdf:RDF>
      <cc:Work
         rdf:about="">
        <dc:format>image/svg+xml</dc:format>
        <dc:type
           rdf:resource="http://purl.org/dc/dcmitype/StillImage" />
        <dc:title />
      </cc:Work>
    </rdf:RDF>
  </metadata>
  <g
     inkscape:label="Layer 1"
     inkscape:groupmode="layer"
     id="layer1"
     transform="translate(0,-168.49998)"
     style="display:inline">
    <rect
       style="display:inline;opacity:1;vector-effect:none;fill:#ffff71;fill-opacity:1;fill-rule:evenodd;stroke:none;stroke-width:0.07071068;stroke-linecap:butt;stroke-linejoin:miter;stroke-miterlimit:4;stroke-dasharray:none;stroke-dashoffset:0;stroke-opacity:1;paint-order:normal"
       id="rect420"
       width="15.24"
       height="128.5"
       x="0"
       y="168.49997" />
    <rect
       style="opacity:1;fill:#e6dc50;fill-opacity:1;stroke:#acac50;stroke-width:0.26137769;stroke-linejoin:round;stroke-miterlimit:4;stroke-dasharray:none;stroke-dashoffset:0;stroke-opacity:1"
       id="rect895"
       width="12.738624"
       height="56.634174"
       x="1.2250935"
       y="191.03058"
       rx="2.5875323" />
    <rect
       style="opacity:1;fill:#adb271;fill-opacity:1;stroke:#6f622e;stroke-width:0.5;stroke-linejoin:round;stroke-miterlimit:4;stroke-dasharray:none;stroke-dashoffset:0;stroke-opacity:1"
       id="rect4549"
       width="11.356014"
       height="15.549654"
       x="1.9419928"
       y="276.38385"
       rx="3.0424569" />
    <g
       aria-label="out"
       style="font-style:normal;font-variant:normal;font-weight:normal;font-stretch:normal;font-size:6.3499999px;line-height:1.25;font-family:'Tlwg Mono';-inkscape-font-specification:'Tlwg Mono';letter-spacing:0px;word-spacing:0px;fill:#000000;fill-opacity:1;stroke:none;stroke-width:0.26458332"
       id="text4559"
       transform="matrix(0.81882645,0,0,0.85461247,-4.8650724,45.829671)">
      <path
         d="m 11.532075,283.30508 q 0.6096,0 1.0287,0.4191 0.4191,0.41275 0.4191,1.016 0,0.5842 -0.42545,0.99695 -0.42545,0.4064 -1.02235,0.4064 -0.60325,0 -1.0287,-0.41275 -0.4191,-0.41275 -0.4191,-1.00965 0,-0.5842 0.4191,-0.99695 0.42545,-0.4191 1.0287,-0.4191 z m 0,0.26035 q -0.4953,0 -0.84455,0.33655 -0.3429,0.33655 -0.3429,0.81915 0,0.4826 0.3429,0.8255 0.34925,0.33655 0.84455,0.33655 0.48895,0 0.8382,-0.33655 0.34925,-0.33655 0.34925,-0.80645 0,-0.50165 -0.3429,-0.8382 -0.3429,-0.33655 -0.84455,-0.33655 z"
         style="font-style:normal;font-variant:normal;font-weight:normal;font-stretch:normal;font-size:6.3499999px;font-family:'Tlwg Mono';-inkscape-font-specification:'Tlwg Mono';stroke-width:0.26458332"
         id="path4561"
         inkscape:connector-curvature="0" />
      <path
         d="m 16.222245,286.04193 v -0.4191 q -0.5334,0.5207 -1.1557,0.5207 -0.381,0 -0.61595,-0.2286 -0.2286,-0.2286 -0.2286,-0.60325 v -1.65735 h -0.3429 q -0.17145,0 -0.17145,-0.13335 0,-0.127 0.17145,-0.127 h 0.60325 v 1.9177 q 0,0.2413 0.1651,0.4064 0.17145,0.1651 0.41275,0.1651 0.635,0 1.16205,-0.5715 v -1.65735 h -0.4699 q -0.1778,0 -0.1778,-0.13335 0,-0.127 0.1778,-0.127 h 0.73025 v 2.3876 h 0.2159 q 0.17145,0 0.17145,0.127 0,0.13335 -0.17145,0.13335 z"
         style="font-style:normal;font-variant:normal;font-weight:normal;font-stretch:normal;font-size:6.3499999px;font-family:'Tlwg Mono';-inkscape-font-specification:'Tlwg Mono';stroke-width:0.26458332"
         id="path4563"
         inkscape:connector-curvature="0" />
      <path
         d="m 18.423214,283.39398 h 1.397 q 0.17145,0 0.17145,0.127 0,0.13335 -0.17145,0.13335 h -1.397 v 1.69545 q 0,0.2413 0.1905,0.38735 0.1905,0.14605 0.5207,0.14605 0.2667,0 0.56515,-0.0698 0.3048,-0.0762 0.48895,-0.18415 0.0635,-0.0381 0.1016,-0.0381 0.04445,0 0.08255,0.0381 0.0381,0.0381 0.0381,0.0889 0,0.1397 -0.4318,0.28575 -0.42545,0.1397 -0.83185,0.1397 -0.45085,0 -0.71755,-0.20955 -0.2667,-0.2159 -0.2667,-0.5715 v -1.70815 h -0.4699 q -0.1778,0 -0.1778,-0.13335 0,-0.127 0.1778,-0.127 h 0.4699 v -0.75565 q 0,-0.17145 0.13335,-0.17145 0.127,0 0.127,0.17145 z"
         style="font-style:normal;font-variant:normal;font-weight:normal;font-stretch:normal;font-size:6.3499999px;font-family:'Tlwg Mono';-inkscape-font-specification:'Tlwg Mono';stroke-width:0.26458332"
         id="path4565"
         inkscape:connector-curvature="0" />
    </g>
    <text
       xml:space="preserve"
       style="font-style:normal;font-variant:normal;font-weight:normal;font-stretch:normal;font-size:4.23333311px;line-height:1.25;font-family:'Tlwg Mono';-inkscape-font-specification:'Tlwg Mono';letter-spacing:0px;word-spacing:0px;fill:#000000;fill-opacity:1;stroke:none;stroke-width:0.26458332"
       x="5.0109768"
       y="274.67224"
       id="text999"><tspan
         sodipodi:role="line"
         id="tspan997"
         x="5.0109768"
         y="274.67224"
         style="font-size:4.23333311px;stroke-width:0.26458332">in</tspan></text>
    <g
       id="text866-2-6"
       style="font-style:normal;font-variant:normal;font-weight:normal;font-stretch:normal;font-size:3.52777767px;line-height:1.25;font-family:'Tlwg Mono';-inkscape-font-specification:'Tlwg Mono';letter-spacing:0px;word-spacing:0px;display:inline;opacity:1;fill:#000000;fill-opacity:1;stroke:none;stroke-width:0.26458332;enable-background:new"
       transform="translate(0,12.7)"
       aria-label="color">
      <path
         inkscape:connector-curvature="0"
         id="path986"
         style="font-size:3.52777767px;stroke-width:0.26458332"
         d="m 3.9450478,219.5723 v -0.0459 q 0,-0.0988 0.074083,-0.0988 0.070556,0 0.070556,0.0988 v 0.32102 q 0,0.0952 -0.070556,0.0952 -0.0635,0 -0.074083,-0.0847 -0.010583,-0.14111 -0.1763889,-0.23636 -0.1622777,-0.0988 -0.3845277,-0.0988 -0.2928056,0 -0.47625,0.18344 -0.1799167,0.17992 -0.1799167,0.4692 0,0.27869 0.1834445,0.45861 0.1834444,0.17639 0.4727222,0.17639 0.3845277,0 0.6596944,-0.254 0.035278,-0.0353 0.0635,-0.0353 0.028222,0 0.045861,0.0212 0.021167,0.0176 0.021167,0.0459 0,0.0705 -0.1516945,0.17286 -0.2822222,0.19403 -0.6455833,0.19403 -0.3457222,0 -0.5715,-0.21873 -0.22225,-0.21872 -0.22225,-0.55738 0,-0.34925 0.2293056,-0.57503 0.2293055,-0.22578 0.5820833,-0.22578 0.3280833,0 0.5503333,0.19403 z" />
      <path
         inkscape:connector-curvature="0"
         id="path988"
         style="font-size:3.52777767px;stroke-width:0.26458332"
         d="m 5.4606141,219.37827 q 0.3386667,0 0.5715,0.23283 0.2328333,0.22931 0.2328333,0.56445 0,0.32455 -0.2363611,0.55386 -0.2363611,0.22578 -0.5679722,0.22578 -0.3351389,0 -0.5715,-0.22931 -0.2328333,-0.2293 -0.2328333,-0.56092 0,-0.32455 0.2328333,-0.55386 0.2363611,-0.23283 0.5715,-0.23283 z m 0,0.14464 q -0.2751666,0 -0.4691944,0.18697 -0.1905,0.18697 -0.1905,0.45508 0,0.26812 0.1905,0.45862 0.1940278,0.18697 0.4691944,0.18697 0.2716389,0 0.4656667,-0.18697 0.1940277,-0.18698 0.1940277,-0.44803 0,-0.2787 -0.1905,-0.46567 -0.1905,-0.18697 -0.4691944,-0.18697 z" />
      <path
         inkscape:connector-curvature="0"
         id="path990"
         style="font-size:3.52777767px;stroke-width:0.26458332"
         d="m 7.6464582,218.76796 v 1.98614 h 0.5644444 q 0.098778,0 0.098778,0.0706 0,0.0741 -0.098778,0.0741 H 6.9373748 q -0.09525,0 -0.09525,-0.0741 0,-0.0706 0.09525,-0.0706 h 0.5644445 v -1.8415 h -0.41275 q -0.09525,0 -0.09525,-0.0741 0,-0.0706 0.09525,-0.0706 z" />
      <path
         inkscape:connector-curvature="0"
         id="path992"
         style="font-size:3.52777767px;stroke-width:0.26458332"
         d="m 9.6911909,219.37827 q 0.3386671,0 0.5715001,0.23283 0.232833,0.22931 0.232833,0.56445 0,0.32455 -0.236361,0.55386 -0.236361,0.22578 -0.5679721,0.22578 -0.3351389,0 -0.5715,-0.22931 -0.2328333,-0.2293 -0.2328333,-0.56092 0,-0.32455 0.2328333,-0.55386 0.2363611,-0.23283 0.5715,-0.23283 z m 0,0.14464 q -0.2751667,0 -0.4691945,0.18697 -0.1905,0.18697 -0.1905,0.45508 0,0.26812 0.1905,0.45862 0.1940278,0.18697 0.4691945,0.18697 0.2716388,0 0.4656671,-0.18697 0.194027,-0.18698 0.194027,-0.44803 0,-0.2787 -0.1905,-0.46567 -0.1904997,-0.18697 -0.4691941,-0.18697 z" />
      <path
         inkscape:connector-curvature="0"
         id="path994"
         style="font-size:3.52777767px;stroke-width:0.26458332"
         d="m 11.623035,219.42766 v 0.35983 q 0.243417,-0.22225 0.395111,-0.30691 0.151695,-0.0882 0.28575,-0.0882 0.141111,0 0.271639,0.10936 0.08114,0.067 0.08114,0.10936 0,0.0318 -0.02117,0.0529 -0.02117,0.0212 -0.05292,0.0212 -0.02822,0 -0.05645,-0.0282 -0.123472,-0.11994 -0.232833,-0.11994 -0.119945,0 -0.250472,0.0847 -0.127,0.0847 -0.419806,0.35277 v 0.77964 h 0.631472 q 0.09525,0 0.09525,0.0741 0,0.0705 -0.09525,0.0705 H 11.13973 q -0.09525,0 -0.09525,-0.0741 0,-0.0706 0.09525,-0.0706 h 0.338666 v -1.1818 h -0.264583 q -0.09525,0 -0.09525,-0.0741 0,-0.0705 0.09525,-0.0705 z" />
    </g>
    <g
       id="text866-2"
       style="font-style:normal;font-variant:normal;font-weight:normal;font-stretch:normal;font-size:3.52777767px;line-height:1.25;font-family:'Tlwg Mono';-inkscape-font-specification:'Tlwg Mono';letter-spacing:0px;word-spacing:0px;display:inline;opacity:1;fill:#000000;fill-opacity:1;stroke:none;stroke-width:0.26458332;enable-background:new"
       transform="translate(0,12.442721)"
       aria-label="depth">
      <path
         inkscape:connector-curvature="0"
         id="path975"
         style="font-size:3.52777767px;stroke-width:0.26458332"
         d="m 4.0773394,199.79358 v 1.98614 h 0.1905 q 0.09525,0 0.09525,0.0706 0,0.0741 -0.09525,0.0741 H 3.9327006 v -0.31397 q -0.2504723,0.37042 -0.6420556,0.37042 -0.3139722,0 -0.53975,-0.23284 -0.22225,-0.23283 -0.22225,-0.55739 0,-0.32455 0.22225,-0.55386 0.2257778,-0.23283 0.53975,-0.23283 0.3880556,0 0.6420556,0.36689 v -0.83256 h -0.1905 q -0.09525,0 -0.09525,-0.0741 0,-0.0706 0.09525,-0.0706 z m -0.776111,0.75495 q -0.2610556,0 -0.4445,0.18697 -0.1834445,0.18697 -0.1834445,0.45508 0,0.27164 0.1834445,0.45862 0.1834444,0.18697 0.4480277,0.18697 0.2610556,0 0.4445,-0.18697 0.1834445,-0.18698 0.1834445,-0.45156 0,-0.27517 -0.1834445,-0.46214 -0.1799166,-0.18697 -0.4480277,-0.18697 z" />
      <path
         inkscape:connector-curvature="0"
         id="path977"
         style="font-size:3.52777767px;stroke-width:0.26458332"
         d="M 6.2561279,201.22233 H 4.7885724 q 0.038806,0.2787 0.2328334,0.44803 0.1940277,0.16581 0.4797777,0.16581 0.1658056,0 0.3386667,-0.0529 0.1728611,-0.0529 0.2786944,-0.13758 0.035278,-0.0247 0.056445,-0.0247 0.028222,0 0.045861,0.0212 0.021167,0.0212 0.021167,0.0494 0,0.0917 -0.254,0.1905 -0.2504722,0.0988 -0.4903611,0.0988 -0.3563055,0 -0.6067777,-0.23989 -0.2469445,-0.23989 -0.2469445,-0.58209 0,-0.32102 0.2328334,-0.53622 0.2328333,-0.21872 0.5715,-0.21872 0.2539999,0 0.4515555,0.127 0.2010833,0.127 0.2963333,0.34572 0.059972,0.14111 0.059972,0.34572 z M 4.7885724,201.0777 h 1.3193889 q -0.042333,-0.23989 -0.22225,-0.38453 -0.1799167,-0.14464 -0.4374444,-0.14464 -0.2575278,0 -0.4339167,0.14464 -0.1763889,0.14111 -0.2257778,0.38453 z" />
      <path
         inkscape:connector-curvature="0"
         id="path979"
         style="font-size:3.52777767px;stroke-width:0.26458332"
         d="m 7.6729165,200.54853 q -0.2610556,0 -0.4445,0.18697 -0.1834445,0.18697 -0.1834445,0.45508 0,0.26812 0.1834445,0.45862 0.1834444,0.18697 0.4445,0.18697 0.2575277,0 0.4409722,-0.18697 0.1869722,-0.18698 0.1869722,-0.44803 0,-0.27517 -0.1834445,-0.46214 -0.1799166,-0.1905 -0.4444999,-0.1905 z m -0.6279445,1.06539 v 0.82197 h 0.3457222 q 0.09525,0 0.09525,0.0706 0,0.0741 -0.09525,0.0741 h -0.680861 q -0.09525,0 -0.09525,-0.0741 0,-0.0706 0.09525,-0.0706 h 0.1904999 v -1.83797 H 6.7098332 q -0.09525,0 -0.09525,-0.0741 0,-0.0705 0.09525,-0.0705 H 7.044972 v 0.31397 q 0.254,-0.36336 0.635,-0.36336 0.3210278,0 0.5432778,0.22578 0.22225,0.22578 0.22225,0.55386 0,0.33161 -0.2257778,0.56444 -0.22225,0.23284 -0.53975,0.23284 -0.3845278,0 -0.635,-0.36689 z" />
      <path
         inkscape:connector-curvature="0"
         id="path981"
         style="font-size:3.52777767px;stroke-width:0.26458332"
         d="m 9.308427,200.45328 h 0.776111 q 0.09525,0 0.09525,0.0705 0,0.0741 -0.09525,0.0741 H 9.308427 v 0.94191 q 0,0.13406 0.1058333,0.2152 0.1058333,0.0811 0.2892777,0.0811 0.1481667,0 0.313972,-0.0388 0.169334,-0.0423 0.271639,-0.1023 0.03528,-0.0212 0.05645,-0.0212 0.02469,0 0.04586,0.0212 0.02117,0.0212 0.02117,0.0494 0,0.0776 -0.239889,0.15875 -0.2363606,0.0776 -0.4621384,0.0776 -0.2504722,0 -0.3986389,-0.11642 -0.1481666,-0.11994 -0.1481666,-0.3175 v -0.94897 H 8.9027325 q -0.098778,0 -0.098778,-0.0741 0,-0.0705 0.098778,-0.0705 h 0.2610556 v -0.41981 q 0,-0.0952 0.074083,-0.0952 0.070556,0 0.070556,0.0952 z" />
      <path
         inkscape:connector-curvature="0"
         id="path983"
         style="font-size:3.52777767px;stroke-width:0.26458332"
         d="m 11.349632,199.79358 v 0.90664 q 0.134056,-0.16227 0.257528,-0.2293 0.123472,-0.067 0.28575,-0.067 0.246945,0 0.402167,0.14111 0.15875,0.13758 0.15875,0.35278 v 0.88194 h 0.15875 q 0.09878,0 0.09878,0.0706 0,0.0741 -0.09878,0.0741 h -0.462139 q -0.09525,0 -0.09525,-0.0741 0,-0.0706 0.09525,-0.0706 h 0.15875 v -0.87136 q 0,-0.16228 -0.134056,-0.26811 -0.109361,-0.0917 -0.299861,-0.0917 -0.148166,0 -0.246944,0.06 -0.09525,0.0565 -0.239889,0.22578 l -0.03881,0.0459 v 0.89958 h 0.15875 q 0.09878,0 0.09878,0.0706 0,0.0741 -0.09878,0.0741 h -0.465666 q -0.09525,0 -0.09525,-0.0741 0,-0.0706 0.09525,-0.0706 h 0.162277 v -1.8415 h -0.1905 q -0.09525,0 -0.09525,-0.0741 0,-0.0706 0.09525,-0.0706 z" />
    </g>
    <g
       id="text866"
       style="font-style:normal;font-variant:normal;font-weight:normal;font-stretch:normal;font-size:3.52777767px;line-height:1.25;font-family:'Tlwg Mono';-inkscape-font-specification:'Tlwg Mono';letter-spacing:0px;word-spacing:0px;display:inline;opacity:1;fill:#000000;fill-opacity:1;stroke:none;stroke-width:0.26458332;enable-background:new"
       transform="translate(0,10.583341)"
       aria-label="rate">
      <path
         inkscape:connector-curvature="0"
         id="path966"
         style="font-size:3.52777767px;stroke-width:0.26458332"
         d="m 4.2565672,183.08098 v 0.35983 q 0.2434167,-0.22225 0.3951111,-0.30691 0.1516944,-0.0882 0.28575,-0.0882 0.1411111,0 0.2716389,0.10936 0.081139,0.067 0.081139,0.10936 0,0.0317 -0.021167,0.0529 -0.021167,0.0212 -0.052917,0.0212 -0.028222,0 -0.056444,-0.0282 -0.1234722,-0.11995 -0.2328333,-0.11995 -0.1199445,0 -0.2504723,0.0847 -0.1269999,0.0847 -0.4198055,0.35278 v 0.77963 h 0.6314722 q 0.09525,0 0.09525,0.0741 0,0.0706 -0.09525,0.0706 H 3.7732617 q -0.09525,0 -0.09525,-0.0741 0,-0.0706 0.09525,-0.0706 h 0.3386666 v -1.1818 H 3.847345 q -0.09525,0 -0.09525,-0.0741 0,-0.0706 0.09525,-0.0706 z" />
      <path
         inkscape:connector-curvature="0"
         id="path968"
         style="font-size:3.52777767px;stroke-width:0.26458332"
         d="m 6.9751057,184.55206 v -0.23636 q -0.3139722,0.29281 -0.6738056,0.29281 -0.2469444,0 -0.3986388,-0.12347 -0.1516945,-0.127 -0.1516945,-0.32809 0,-0.2293 0.2046111,-0.37041 0.2081389,-0.14464 0.53975,-0.14464 0.2081389,0 0.4797778,0.0741 v -0.25047 q 0,-0.13053 -0.1199445,-0.20814 -0.1199444,-0.0811 -0.3139722,-0.0811 -0.1552222,0 -0.5009444,0.10583 -0.028222,0.007 -0.035278,0.007 -0.028222,0 -0.049389,-0.0212 -0.017639,-0.0212 -0.017639,-0.0494 0,-0.0529 0.059972,-0.0741 0.3280833,-0.11289 0.5538611,-0.11289 0.2469444,0 0.4056944,0.12347 0.1622778,0.12348 0.1622778,0.31045 v 0.94191 h 0.1905 q 0.09525,0 0.09525,0.0706 0,0.0741 -0.09525,0.0741 z m 0,-0.39511 v -0.3175 q -0.2116667,-0.0529 -0.4515556,-0.0529 -0.2786944,0 -0.4550833,0.10583 -0.1728611,0.1023 -0.1728611,0.26811 0,0.13758 0.1093611,0.22225 0.1093611,0.0811 0.2928056,0.0811 0.1869722,0 0.3421944,-0.0706 0.15875,-0.0706 0.3351389,-0.23636 z" />
      <path
         inkscape:connector-curvature="0"
         id="path970"
         style="font-size:3.52777767px;stroke-width:0.26458332"
         d="m 8.268422,183.08098 h 0.7761111 q 0.09525,0 0.09525,0.0706 0,0.0741 -0.09525,0.0741 H 8.268422 v 0.94192 q 0,0.13405 0.1058333,0.21519 0.1058333,0.0811 0.2892778,0.0811 0.1481666,0 0.3139722,-0.0388 0.1693333,-0.0423 0.2716389,-0.1023 0.035278,-0.0212 0.056444,-0.0212 0.024695,0 0.045861,0.0212 0.021167,0.0212 0.021167,0.0494 0,0.0776 -0.2398889,0.15875 -0.2363611,0.0776 -0.4621389,0.0776 -0.2504722,0 -0.3986388,-0.11642 -0.1481667,-0.11994 -0.1481667,-0.3175 v -0.94897 H 7.8627275 q -0.098778,0 -0.098778,-0.0741 0,-0.0706 0.098778,-0.0706 h 0.2610556 v -0.41981 q 0,-0.0952 0.074083,-0.0952 0.070556,0 0.070556,0.0952 z" />
      <path
         inkscape:connector-curvature="0"
         id="path972"
         style="font-size:3.52777767px;stroke-width:0.26458332"
         d="m 11.561988,183.85004 h -1.467556 q 0.03881,0.27869 0.232834,0.44802 0.194028,0.16581 0.479778,0.16581 0.165805,0 0.338666,-0.0529 0.172861,-0.0529 0.278695,-0.13758 0.03528,-0.0247 0.05644,-0.0247 0.02822,0 0.04586,0.0212 0.02117,0.0212 0.02117,0.0494 0,0.0917 -0.254,0.1905 -0.250472,0.0988 -0.490361,0.0988 -0.356306,0 -0.606778,-0.23989 -0.2469444,-0.23989 -0.2469444,-0.58208 0,-0.32103 0.2328334,-0.53623 0.232833,-0.21872 0.5715,-0.21872 0.254,0 0.451555,0.127 0.201084,0.127 0.296334,0.34572 0.05997,0.14111 0.05997,0.34573 z m -1.467556,-0.14464 h 1.319389 q -0.04233,-0.23989 -0.22225,-0.38453 -0.179916,-0.14464 -0.437444,-0.14464 -0.257528,0 -0.433917,0.14464 -0.176389,0.14111 -0.225778,0.38453 z" />
    </g>
    <g
       transform="translate(0,168.49998)"
       aria-label="Wobble"
       style="font-style:normal;font-variant:normal;font-weight:bold;font-stretch:normal;font-size:6.3499999px;line-height:1.25;font-family:'Tlwg Mono';-inkscape-font-specification:'Tlwg Mono Bold';letter-spacing:0px;word-spacing:0px;display:inline;opacity:1;fill:#000000;fill-opacity:1;stroke:none;stroke-width:0.26458332;enable-background:new"
       id="text862">
      <path
         d="M 1.5222082,6.7087195 1.0727693,8.0767918 H 0.52455264 L 0.21834152,5.6913084 q -0.22718889,-0.029633 -0.22718889,-0.2370667 0,-0.2568222 0.32596667,-0.2568222 h 0.64699447 q 0.33090553,0 0.33090553,0.2469444 0,0.2469445 -0.33090553,0.2469445 H 0.72704709 L 0.9048471,7.0346862 1.2802027,5.9184973 H 1.7938471 L 2.1692027,7.0346862 2.3420638,5.6913084 H 2.0803027 q -0.3259667,0 -0.3259667,-0.2469445 0,-0.2469444 0.3259667,-0.2469444 h 0.6469944 q 0.3259667,0 0.3259667,0.2469444 0,0.2074334 -0.2321278,0.2469445 L 2.5248027,8.0767918 H 1.9815249 Z"
         style="font-style:normal;font-variant:normal;font-weight:bold;font-stretch:normal;font-size:4.93888903px;font-family:'Tlwg Mono';-inkscape-font-specification:'Tlwg Mono Bold';letter-spacing:-0.46302083px;word-spacing:0px;stroke-width:0.26458332"
         id="path953"
         inkscape:connector-curvature="0" />
      <path
         d="m 4.0354082,5.8542917 q 0.5235222,0 0.889,0.3358445 0.3704167,0.3358444 0.3704167,0.8149166 0,0.4840112 -0.3704167,0.8198556 -0.3704167,0.3309056 -0.9038167,0.3309056 -0.5334,0 -0.9038167,-0.3309056 Q 2.7463581,7.489064 2.7463581,7.0050528 q 0,-0.48895 0.3704167,-0.8198555 0.3704167,-0.3309056 0.9186334,-0.3309056 z m -0.00494,0.4938889 q -0.3358445,0 -0.5630334,0.1876778 -0.2271889,0.1876778 -0.2271889,0.4691944 0,0.2765778 0.2222501,0.4691945 0.2271888,0.1876778 0.5580944,0.1876778 0.3309056,0 0.5531556,-0.1876778 0.2271889,-0.1926167 0.2271889,-0.4691945 0,-0.2765777 -0.2271889,-0.4642555 Q 4.351496,6.3481806 4.0304682,6.3481806 Z"
         style="font-style:normal;font-variant:normal;font-weight:bold;font-stretch:normal;font-size:4.93888903px;font-family:'Tlwg Mono';-inkscape-font-specification:'Tlwg Mono Bold';letter-spacing:-0.46302083px;word-spacing:0px;stroke-width:0.26458332"
         id="path955"
         inkscape:connector-curvature="0" />
      <path
         d="m 7.8574137,7.000114 q 0,0.4543777 -0.3160889,0.8001 -0.3160889,0.3457222 -0.8988778,0.3457222 -0.3951111,0 -0.7457722,-0.2420056 V 8.0767918 H 5.3237636 q -0.3259666,0 -0.3259666,-0.2469445 0,-0.2469444 0.3259666,-0.2469444 h 0.079022 v -2.094089 h -0.079022 q -0.3259666,0 -0.3259666,-0.2469444 0,-0.2469445 0.3259666,-0.2469445 h 0.5729112 v 1.1013723 q 0.31115,-0.2469445 0.7408333,-0.2469445 0.3012723,0 0.5383389,0.1037167 0.2420056,0.098778 0.3852334,0.2667 0.1481666,0.1629833 0.22225,0.3654778 0.074083,0.1975555 0.074083,0.4148667 z M 6.6325692,6.3432417 q -0.2074333,0 -0.3605389,0.069145 -0.1531055,0.069144 -0.2321277,0.1778 Q 5.9658196,6.6988422 5.931247,6.79762 5.896675,6.896398 5.896675,6.9902367 q 0,0.2913944 0.2024944,0.4790722 0.2074334,0.1827389 0.5334,0.1827389 0.3210278,0 0.5235223,-0.1827389 0.2074333,-0.1876778 0.2074333,-0.4741333 0,-0.0889 -0.034572,-0.1876778 Q 7.2943804,6.7037806 7.2153581,6.5951251 7.1412748,6.4864695 6.9881693,6.4173251 6.8350637,6.3432417 6.6325692,6.3432417 Z"
         style="font-style:normal;font-variant:normal;font-weight:bold;font-stretch:normal;font-size:4.93888903px;font-family:'Tlwg Mono';-inkscape-font-specification:'Tlwg Mono Bold';letter-spacing:-0.46302083px;word-spacing:0px;stroke-width:0.26458332"
         id="path957"
         inkscape:connector-curvature="0" />
      <path
         d="m 10.355797,7.000114 q 0,0.4543777 -0.316089,0.8001 -0.316089,0.3457222 -0.8988779,0.3457222 -0.3951112,0 -0.7457723,-0.2420056 V 8.0767918 H 7.8221467 q -0.3259667,0 -0.3259667,-0.2469445 0,-0.2469444 0.3259667,-0.2469444 h 0.079022 v -2.094089 h -0.079022 q -0.3259667,0 -0.3259667,-0.2469444 0,-0.2469445 0.3259667,-0.2469445 h 0.5729111 v 1.1013723 q 0.31115,-0.2469445 0.7408334,-0.2469445 0.3012722,0 0.5383389,0.1037167 0.2420055,0.098778 0.3852329,0.2667 0.148167,0.1629833 0.22225,0.3654778 0.07408,0.1975555 0.07408,0.4148667 z M 9.1309523,6.3432417 q -0.2074334,0 -0.3605389,0.069145 -0.1531056,0.069144 -0.2321278,0.1778 Q 8.4642026,6.6988422 8.42963,6.79762 8.395058,6.896398 8.395058,6.9902367 q 0,0.2913944 0.2024945,0.4790722 0.2074333,0.1827389 0.5334,0.1827389 0.3210278,0 0.5235222,-0.1827389 0.2074334,-0.1876778 0.2074334,-0.4741333 0,-0.0889 -0.034572,-0.1876778 Q 9.7927641,6.7037811 9.7137417,6.5951256 9.6396587,6.48647 9.4865528,6.4173256 9.3334472,6.3432426 9.1309528,6.3432426 Z"
         style="font-style:normal;font-variant:normal;font-weight:bold;font-stretch:normal;font-size:4.93888903px;font-family:'Tlwg Mono';-inkscape-font-specification:'Tlwg Mono Bold';letter-spacing:-0.46302083px;word-spacing:0px;stroke-width:0.26458332"
         id="path959"
         inkscape:connector-curvature="0" />
      <path
         d="m 10.666252,8.0767918 q -0.325966,0 -0.325966,-0.2469445 0,-0.2469444 0.325966,-0.2469444 h 0.602545 v -2.094089 h -0.385233 q -0.330906,0 -0.330906,-0.2469444 0,-0.2469445 0.330906,-0.2469445 h 0.879122 v 2.5879779 h 0.602544 q 0.325967,0 0.325967,0.2469444 0,0.2469445 -0.325967,0.2469445 z"
         style="font-style:normal;font-variant:normal;font-weight:bold;font-stretch:normal;font-size:4.93888903px;font-family:'Tlwg Mono';-inkscape-font-specification:'Tlwg Mono Bold';letter-spacing:-0.46302083px;word-spacing:0px;stroke-width:0.26458332"
         id="path961"
         inkscape:connector-curvature="0" />
      <path
         d="m 14.043758,7.6619251 q 0.261761,0 0.582789,-0.079022 0.321028,-0.083961 0.385233,-0.083961 0.09878,0 0.167923,0.074083 0.06914,0.069144 0.06914,0.1728611 0,0.1432278 -0.172861,0.22225 -0.167922,0.074083 -0.493889,0.1284111 -0.321028,0.059267 -0.582789,0.059267 -0.572911,0 -0.938389,-0.3210278 -0.365477,-0.3210278 -0.365477,-0.8247945 0,-0.48895 0.365477,-0.8198555 0.370417,-0.3358445 0.908756,-0.3358445 0.553155,0 0.913694,0.3358445 0.365478,0.3358444 0.365478,0.84455 V 7.2273029 H 13.23378 q 0.167923,0.4346222 0.809978,0.4346222 z M 13.248597,6.7926806 H 14.70063 Q 14.641364,6.5901862 14.443808,6.4716528 14.246253,6.3481806 13.974614,6.3481806 q -0.271639,0 -0.474134,0.1234722 -0.197555,0.1234723 -0.251883,0.3210278 z"
         style="font-style:normal;font-variant:normal;font-weight:bold;font-stretch:normal;font-size:4.93888903px;font-family:'Tlwg Mono';-inkscape-font-specification:'Tlwg Mono Bold';letter-spacing:-0.46302083px;word-spacing:0px;stroke-width:0.26458332"
         id="path963"
         inkscape:connector-curvature="0" />
    </g>
  </g>
  <g
     inkscape:groupmode="layer"
     id="layer2"
     inkscape:label="components"
     style="display:inline;opacity:1">
    <circle
       r="4"
       cy="98.644562"
       cx="7.6199999"
       id="circle4956"
       style="display:inline;opacity:1;vector-effect:none;fill:#00ff00;fill-opacity:1;fill-rule:evenodd;stroke:none;stroke-width:1;stroke-linecap:butt;stroke-linejoin:miter;stroke-miterlimit:4;stroke-dasharray:none;stroke-dashoffset:0;stroke-opacity:1;paint-order:normal"
       inkscape:label="in" />
    <circle
       style="display:inline;opacity:1;vector-effect:none;fill:#0000ff;fill-opacity:1;fill-rule:evenodd;stroke:none;stroke-width:1;stroke-linecap:butt;stroke-linejoin:miter;stroke-miterlimit:4;stroke-dasharray:none;stroke-dashoffset:0;stroke-opacity:1;paint-order:normal"
       id="circle4958"
       cx="7.6199999"
       cy="113.47509"
       r="4"
       inkscape:label="out" />
    <circle
       style="display:inline;opacity:1;vector-effect:none;fill:#ff0000;fill-opacity:1;fill-rule:evenodd;stroke:none;stroke-width:1;stroke-linecap:butt;stroke-linejoin:miter;stroke-miterlimit:4;stroke-dasharray:none;stroke-dashoffset:0;stroke-opacity:1;paint-order:normal;enable-background:new"
       id="ctrl02"
       cx="7.6199999"
       cy="52.878395"
       r="4"
       inkscape:label="depth" />
    <circle
       style="display:inline;opacity:1;vector-effect:none;fill:#ff0000;fill-opacity:1;fill-rule:evenodd;stroke:none;stroke-width:1;stroke-linecap:butt;stroke-linejoin:miter;stroke-miterlimit:4;stroke-dasharray:none;stroke-dashoffset:0;stroke-opacity:1;paint-order:normal;enable-background:new"
       id="ctrl03"
       cx="7.5595236"
       cy="72.110054"
       r="4"
       inkscape:label="color" />
    <circle
       style="display:inline;opacity:1;vector-effect:none;fill:#ff0000;fill-opacity:1;fill-rule:evenodd;stroke:none;stroke-width:1;stroke-linecap:butt;stroke-linejoin:miter;stroke-miterlimit:4;stroke-dasharray:none;stroke-dashoffset:0;stroke-opacity:1;paint-order:normal;enable-background:new"
       id="ctrl01"
       cx="7.6199999"
       cy="33.646721"
       r="4"
       inkscape:label="rate" />
  </g>
</svg>
